<svg xmlns="http://www.w3.org/2000/svg" viewBox="0 0 39.92 13.86"><title>Asset 1</title><g id="Layer_2" data-name="Layer 2"><g id="Layer_1-2" data-name="Layer 1"><path d="M6.53,0h.81l.41,0a6.9,6.9,0,0,1,3.41,1.39l.12.09.27-.21a6.82,6.82,0,0,1,3-1.24L15.22,0H16l.5.06a6.84,6.84,0,0,1,3.35,1.39l.1.08.1-.08A6.84,6.84,0,0,1,23.42.06L23.89,0h.81l.41,0a6.91,6.91,0,0,1,3.32,1.32l.21.16h0l.11-.09A6.84,6.84,0,0,1,32.11.06L32.59,0h.81l.09,0c.24,0,.49,0,.73.09a6.82,6.82,0,0,1,4.2,2.52,6.74,6.74,0,0,1,1.44,3.47c0,.2,0,.39.06.59v.47s0,.07,0,.11c0,.28,0,.57-.09.84a6.83,6.83,0,0,1-2.66,4.36,6.71,6.71,0,0,1-3.34,1.34l-.58.06h-.49l-.4,0a6.81,6.81,0,0,1-3.1-1.07c-.21-.13-.4-.28-.6-.42l-.09.07a6.83,6.83,0,0,1-3.42,1.4l-.59.06h-.49l-.1,0c-.23,0-.47,0-.7-.07A6.84,6.84,0,0,1,20,12.39a.11.11,0,0,0-.17,0,6.8,6.8,0,0,1-3.43,1.41l-.58.06h-.49l-.11,0a6.81,6.81,0,0,1-3.28-1c-.25-.15-.48-.32-.72-.49l-.08.06a6.83,6.83,0,0,1-3.42,1.4l-.59.06H6.69l-.15,0c-.34,0-.69-.07-1-.14a6.79,6.79,0,0,1-4-2.42A6.76,6.76,0,0,1,.06,7.77c0-.2,0-.41-.06-.61s0-.31,0-.47l0-.13c0-.31.05-.63.11-.93a6.81,6.81,0,0,1,2.37-4A6.76,6.76,0,0,1,6,.06Zm3.71,2.56a5.48,5.48,0,1,0,0,8.73A7,7,0,0,1,10.23,2.56Zm19.45,0a7,7,0,0,1,0,8.73,5.48,5.48,0,1,0,0-8.73ZM21,11.29a5.45,5.45,0,0,0,6.6,0,7,7,0,0,1,0-8.73,5.45,5.45,0,0,0-6.6,0,7,7,0,0,1,0,8.73ZM12.32,2.56a7,7,0,0,1,0,8.73,5.46,5.46,0,0,0,6.61,0,7,7,0,0,1,0-8.73A5.46,5.46,0,0,0,12.32,2.56Zm-1,1a5.43,5.43,0,0,0-1.12,3.74,5.38,5.38,0,0,0,1.12,2.94A5.47,5.47,0,0,0,11.27,3.59ZM20,10.26A5.44,5.44,0,0,0,20,3.6,5.44,5.44,0,0,0,20,10.26Zm8.68,0a5.44,5.44,0,0,0,0-6.66A5.46,5.46,0,0,0,28.64,10.26Z"/></g></g></svg>